<svg width="23" height="22" viewBox="0 0 23 22" fill="none" xmlns="http://www.w3.org/2000/svg">
<path fill-rule="evenodd" clip-rule="evenodd" d="M10.7653 1.76612C8.75928 1.64059 6.77648 2.25167 5.18917 3.48462C3.60186 4.71756 2.51924 6.48756 2.14461 8.46223C1.77076 10.4327 2.12756 12.4718 3.148 14.1981C3.25589 14.3732 3.29004 14.59 3.23068 14.7977L2.34219 17.9074L1.62105 17.7014L2.34219 17.9074L2.34219 17.9076L2.34227 17.9077L2.34241 17.9078H2.34258L2.54862 18.6289L2.34258 17.9078L5.45231 17.0193C5.65695 16.9608 5.87417 16.9926 6.05148 17.1017C7.45622 17.9322 9.06807 18.3232 10.6816 18.2387C10.4032 17.5469 10.25 16.7914 10.25 16C10.25 12.6863 12.9363 10 16.25 10C17.0414 10 17.797 10.1532 18.4887 10.4316C18.5052 10.1175 18.5037 9.80139 18.4839 9.4847C18.3583 7.47872 17.5048 5.58757 16.0836 4.16636C14.6624 2.74515 12.7712 1.89165 10.7653 1.76612ZM19.9192 11.2524C19.9987 10.6392 20.0201 10.0161 19.981 9.39101C19.8326 7.02031 18.8239 4.78531 17.1443 3.1057C15.4646 1.42609 13.2296 0.417398 10.8589 0.269046C8.48824 0.120694 6.14493 0.842882 4.26902 2.3C2.39311 3.75712 1.11365 5.84893 0.670894 8.18264C0.248576 10.4086 0.615222 12.7087 1.70167 14.6892L0.899906 17.4953C0.826401 17.7526 0.82303 18.0248 0.890144 18.2838C0.957258 18.5428 1.09241 18.7792 1.28161 18.9684C1.47081 19.1576 1.70715 19.2927 1.96616 19.3599C2.22516 19.427 2.4974 19.4236 2.75466 19.3501L5.56084 18.5483C7.37417 19.5431 9.45536 19.9344 11.5023 19.6692C12.5998 21.0871 14.3183 22 16.25 22C19.5637 22 22.25 19.3137 22.25 16C22.25 14.0683 21.3371 12.3498 19.9192 11.2524ZM19.45 15C20.0022 15 20.45 15.4477 20.45 16C20.45 16.5523 20.0022 17 19.45 17C18.8977 17 18.45 16.5523 18.45 16C18.45 15.4477 18.8977 15 19.45 15ZM16.45 15C17.0022 15 17.45 15.4477 17.45 16C17.45 16.5523 17.0022 17 16.45 17C15.8977 17 15.45 16.5523 15.45 16C15.45 15.4477 15.8977 15 16.45 15ZM14.45 16C14.45 15.4477 14.0022 15 13.45 15C12.8977 15 12.45 15.4477 12.45 16C12.45 16.5523 12.8977 17 13.45 17C14.0022 17 14.45 16.5523 14.45 16Z" fill="#3F4142"/>
</svg>
