<svg xmlns="http://www.w3.org/2000/svg" width="24" height="24" viewBox="0 0 24 24">
    <path fill="none" fill-rule="evenodd" stroke="#3F4142" stroke-linecap="round" stroke-linejoin="round" stroke-width="1.5" d="M12.878 2.818l7.65 6.419c.3.251.472.619.472 1.006v9.933c0 .731-.604 1.324-1.35 1.324H15.7c-.552 0-1-.449-1-1v-3.413h0c0-1.41-1.124-2.563-2.541-2.644L12 14.44c-1.438 0-2.613 1.102-2.695 2.492l-.005.156v3.412c0 .552-.448 1-1 1l-3.95.001h0c-.746 0-1.35-.593-1.35-1.324v-9.933c0-.387.173-.755.472-1.006l7.65-6.419c.506-.424 1.25-.424 1.756 0z"/>
</svg>
